<svg width="25" height="35" viewBox="0 0 25 35" fill="none" xmlns="http://www.w3.org/2000/svg">
<g id="envelope">
<g id="Group 12">
<path id="Vector" d="M24.5264 12.8101C24.7168 12.6019 25 12.7966 25 13.1256V26.8555C25 28.6346 23.9502 30.0781 22.6562 30.0781H2.34375C1.0498 30.0781 0 28.6346 0 26.8555V13.1323C0 12.7966 0.27832 12.6086 0.473633 12.8168C1.56738 13.985 3.01758 15.4688 7.99805 20.4437C9.02832 21.4777 10.7666 23.653 12.5 23.6395C14.2432 23.6597 16.0156 21.4374 17.0068 20.4437C21.9873 15.4688 23.4326 13.9783 24.5264 12.8101ZM12.5 21.4844C13.6328 21.5112 15.2637 19.5239 16.084 18.7048C22.5635 12.2394 23.0566 11.6754 24.5508 10.0641C24.834 9.76196 25 9.29199 25 8.79517V7.51953C25 5.74036 23.9502 4.29688 22.6562 4.29688H2.34375C1.0498 4.29687 0 5.74036 0 7.51953V8.79517C0 9.29199 0.166016 9.75525 0.449219 10.0641C1.94336 11.6687 2.43652 12.2394 8.91602 18.7048C9.73633 19.5239 11.3672 21.5112 12.5 21.4844Z" fill="white"/>
</g>
</g>
</svg>
