<svg width="25" height="35" viewBox="0 0 25 35" fill="none" xmlns="http://www.w3.org/2000/svg">
<g id="phone-alt" clip-path="url(#clip0_1_434)">
<g id="Group 11">
<path id="Vector" d="M24.2866 24.6656L18.8179 21.443C18.5842 21.3061 18.3246 21.2772 18.078 21.3608C17.8315 21.4443 17.6113 21.6358 17.4507 21.9063L15.0288 25.9749C11.2279 23.5107 8.16904 19.3048 6.37695 14.0786L9.33594 10.7485C9.53305 10.528 9.67256 10.2253 9.73335 9.88611C9.79414 9.54691 9.7729 9.18971 9.67285 8.86859L7.3291 1.34906C7.21929 1.0029 7.02508 0.720271 6.77996 0.549909C6.53483 0.379547 6.25416 0.33213 5.98633 0.415834L0.908203 2.02716C0.649985 2.10915 0.419602 2.30906 0.254656 2.59427C0.0897096 2.87948 -5.94829e-05 3.23314 2.95713e-08 3.59754C2.95713e-08 20.8186 10.1514 34.7499 22.6562 34.7499C22.9213 34.7501 23.1787 34.6267 23.3862 34.3999C23.5937 34.1731 23.7392 33.8563 23.7988 33.5011L24.9707 26.5187C25.0312 26.1486 24.996 25.7611 24.8711 25.4229C24.7463 25.0847 24.5396 24.8169 24.2866 24.6656Z" fill="white"/>
</g>
</g>
<defs>
<clipPath id="clip0_1_434">
<rect width="25" height="34.375" fill="white" transform="translate(0 0.375)"/>
</clipPath>
</defs>
</svg>
